<svg width="694.8650146484375px" height="181.2800109863281px" xmlns="http://www.w3.org/2000/svg" viewBox="-97.43250732421876 -15.640005493164054 694.8650146484375 181.2800109863281" style="background: rgba(0, 0, 0, 0);" preserveAspectRatio="xMidYMid"><defs><filter id="editing-hole" x="-100%" y="-100%" width="300%" height="300%"><feFlood flood-color="#000" result="black"></feFlood><feMorphology operator="dilate" radius="2" in="SourceGraphic" result="erode"></feMorphology><feGaussianBlur in="erode" stdDeviation="4" result="blur"></feGaussianBlur><feOffset in="blur" dx="2" dy="2" result="offset"></feOffset><feComposite operator="atop" in="offset" in2="black" result="merge"></feComposite><feComposite operator="in" in="merge" in2="SourceGraphic" result="inner-shadow"></feComposite></filter></defs><g filter="url(#editing-hole)"><g transform="translate(1.8550195693969727, 103.73500442504883)"><path d="M8.31-22.97L8.31-22.97L8.31-22.97Q8.31-18.78 9.84-15.23L9.84-15.23L9.84-15.23Q11.38-11.69 14.06-9.25L14.06-9.25L14.06-9.25Q19.75-4.09 28.66-4.09L28.66-4.09L28.66-4.09Q37.56-4.09 44.34-10.88L44.34-10.88L44.34-10.88Q45.09-11.63 45.67-11.63L45.67-11.63L45.67-11.63Q46.25-11.63 46.77-11.19L46.77-11.19L46.77-11.19Q47.28-10.75 47.28-10.13L47.28-10.13L47.28-10.13Q47.28-9.50 46.94-8.72L46.94-8.72L46.97-8.72L46.97-8.72Q44.63-4.59 39.14-1.86L39.14-1.86L39.14-1.86Q33.66 0.88 27.91 0.88L27.91 0.88L27.91 0.88Q22.16 0.88 17.44-0.59L17.44-0.59L17.44-0.59Q12.72-2.06 9.08-4.78L9.08-4.78L9.08-4.78Q5.44-7.50 3.28-11.73L3.28-11.73L3.28-11.73Q1.13-15.97 1.13-21.27L1.13-21.27L1.13-21.27Q1.13-26.56 3.16-30.95L3.16-30.95L3.16-30.95Q5.19-35.34 8.75-38.22L8.75-38.22L8.75-38.22Q16.06-44.16 27.41-44.16L27.41-44.16L27.41-44.16Q33.44-44.16 38.81-42.28L38.81-42.28L38.81-42.28Q41.56-41.31 43.30-39.52L43.30-39.52L43.30-39.52Q45.03-37.72 45.03-35.41L45.03-35.41L45.03-35.41Q45.03-33.09 43.59-31.97L43.59-31.97L43.59-31.97Q42.16-30.84 40.22-30.84L40.22-30.84L40.22-30.84Q38.28-30.84 37.38-31.16L37.38-31.16L37.38-31.16Q37.03-36.03 34.56-38.41L34.56-38.41L34.56-38.41Q32.09-40.78 27.13-40.78L27.13-40.78L27.13-40.78Q18.66-40.78 13.48-35.86L13.48-35.86L13.48-35.86Q8.31-30.94 8.31-22.97ZM63.78 0.78L63.78 0.78L63.78 0.78Q56.72 0.78 52.41-3.67L52.41-3.67L52.41-3.67Q48.09-8.13 48.09-14.97L48.09-14.97L48.09-14.97Q48.09-19.53 50.38-23.09L50.38-23.09L50.38-23.09Q52.66-26.66 56.55-28.55L56.55-28.55L56.55-28.55Q60.44-30.44 65.22-30.44L65.22-30.44L65.22-30.44Q72.09-30.44 76.56-26.16L76.56-26.16L76.56-26.16Q81.03-21.88 81.03-15.09L81.03-15.09L81.03-15.09Q81.03-10.41 78.73-6.77L78.73-6.77L78.73-6.77Q76.44-3.13 72.53-1.17L72.53-1.17L72.53-1.17Q68.63 0.78 63.78 0.78ZM65.06-2.69L65.06-2.69L65.06-2.69Q69.72-2.69 72.33-5.84L72.33-5.84L72.33-5.84Q74.94-9 74.94-14.25L74.94-14.25L74.94-14.25Q74.94-19.50 71.94-23.31L71.94-23.31L71.94-23.31Q68.94-27.13 64.23-27.13L64.23-27.13L64.23-27.13Q59.53-27.13 57-23.91L57-23.91L57-23.91Q54.47-20.69 54.47-15.47L54.47-15.47L54.47-15.47Q54.47-10.25 57.44-6.47L57.44-6.47L57.44-6.47Q60.41-2.69 65.06-2.69ZM93 0L93 0L90.31 0.03L90.31 0.03Q86.22 0.03 85.25-1.22L85.25-1.22L85.25-1.22Q84.81-1.78 84.81-2.58L84.81-2.58L84.81-2.58Q84.81-3.38 85.44-3.69L85.44-3.69L85.44-3.69Q86.06-4 86.83-4.03L86.83-4.03L86.83-4.03Q87.59-4.06 88.22-4.52L88.22-4.52L88.22-4.52Q88.84-4.97 88.84-5.97L88.84-5.97L88.84-21.41L88.84-21.41Q88.84-24.19 88.17-24.84L88.17-24.84L88.17-24.84Q87.50-25.50 87.05-25.69L87.05-25.69L87.05-25.69Q86.59-25.88 85.63-26.16L85.63-26.16L85.63-26.16Q84.66-26.44 84.05-26.72L84.05-26.72L84.05-26.72Q83.44-27 83.44-27.56L83.44-27.56L83.44-27.56Q83.44-30.06 90.16-30.06L90.16-30.06L90.16-30.06Q93-30.06 93.77-29.08L93.77-29.08L93.77-29.08Q94.53-28.09 94.53-24.53L94.53-24.53L94.53-24.53Q95.59-27.22 98.05-28.75L98.05-28.75L98.05-28.75Q100.50-30.28 103.08-30.28L103.08-30.28L103.08-30.28Q105.66-30.28 107.33-29.17L107.33-29.17L107.33-29.17Q109-28.06 109-26.36L109-26.36L109-26.36Q109-24.66 107.91-23.64L107.91-23.64L107.91-23.64Q106.81-22.63 105.22-22.63L105.22-22.63L105.22-22.63Q103.63-22.63 102.48-23.47L102.48-23.47L102.48-23.47Q101.34-24.31 101-25.66L101-25.66L101-25.66Q100.19-25.78 99.66-25.78L99.66-25.78L99.66-25.78Q94.78-25.78 94.78-14.56L94.78-14.56L94.78-5.97L94.78-5.97Q94.78-4.16 96.80-4.05L96.80-4.05L96.80-4.05Q98.81-3.94 98.81-2.44L98.81-2.44L98.81-2.44Q98.81-0.72 96.94-0.31L96.94-0.31L96.94-0.31Q95.50 0 93 0ZM115.27-3.41L115.27-3.41L115.27-3.41Q110.94-7.66 110.94-14.69L110.94-14.69L110.94-14.69Q110.94-21.72 115.30-26.11L115.30-26.11L115.30-26.11Q119.66-30.50 126.41-30.50L126.41-30.50L126.41-30.50Q131.75-30.50 135.42-27.05L135.42-27.05L135.42-27.05Q139.09-23.59 139.09-18.38L139.09-18.38L139.09-18.38Q139.09-15.84 135.09-15.84L135.09-15.84L117-15.84L117-15.84Q117.06-10.78 120.28-7.31L120.28-7.31L120.28-7.31Q123.50-3.84 128.41-3.84L128.41-3.84L128.41-3.84Q131.66-3.84 134.72-5.75L134.72-5.75L134.72-5.75Q136.34-6.75 136.80-6.75L136.80-6.75L136.80-6.75Q137.25-6.75 137.83-6.30L137.83-6.30L137.83-6.30Q138.41-5.84 138.41-5.19L138.41-5.19L138.41-5.19Q138.41-3.47 136.20-2.02L136.20-2.02L136.20-2.02Q134-0.56 131.34 0.14L131.34 0.14L131.34 0.14Q128.69 0.84 126.69 0.84L126.69 0.84L126.69 0.84Q119.59 0.84 115.27-3.41ZM133.34-19.13L133.34-19.13L133.34-19.13Q133.28-22.72 131.47-24.97L131.47-24.97L131.47-24.97Q129.66-27.22 126.17-27.22L126.17-27.22L126.17-27.22Q122.69-27.22 120.08-24.72L120.08-24.72L120.08-24.72Q117.47-22.22 117.31-19L117.31-19L124.63-19L124.63-19Q129.50-19 133.34-19.13ZM159.47-6.41L159.47-6.41L159.47-6.41Q167.38-23.13 167.38-24.06L167.38-24.06L167.38-24.06Q167.38-25 166.69-25.38L166.69-25.38L166.69-25.38Q166-25.75 165.19-25.81L165.19-25.81L165.19-25.81Q163-26.03 163-27.09L163-27.09L163-27.09Q163-29.94 169.72-29.94L169.72-29.94L170.97-29.94L170.97-29.94Q173.97-29.94 175.27-28.97L175.27-28.97L175.27-28.97Q176.56-28 176.56-27.16L176.56-27.16L176.56-27.16Q176.56-26.31 175.63-26.13L175.63-26.13L175.63-26.13Q173.69-25.78 172.73-25.05L172.73-25.05L172.73-25.05Q171.78-24.31 170.88-22.34L170.88-22.34L170.88-22.34Q169.97-20.38 167.84-15.63L167.84-15.63L167.84-15.63Q165.72-10.88 164.28-7.88L164.28-7.88L157.56 5.94L157.56 5.94Q156.50 8.19 154.83 9.67L154.83 9.67L154.83 9.67Q153.16 11.16 150.88 11.16L150.88 11.16L150.88 11.16Q148.59 11.16 146.89 10.02L146.89 10.02L146.89 10.02Q145.19 8.88 145.19 7.08L145.19 7.08L145.19 7.08Q145.19 5.28 146.27 4.23L146.27 4.23L146.27 4.23Q147.34 3.19 148.97 3.19L148.97 3.19L148.97 3.19Q150.59 3.19 151.89 4L151.89 4L151.89 4Q153.19 4.81 153.25 6L153.25 6L153.25 6Q155.75 2.03 156.59-0.19L156.59-0.19L156.59-0.19Q155.28-3.81 150.61-12.89L150.61-12.89L150.61-12.89Q145.94-21.97 145.44-23.02L145.44-23.02L145.44-23.02Q144.94-24.06 144.58-24.47L144.58-24.47L144.58-24.47Q144.22-24.88 143.66-25.16L143.66-25.16L143.66-25.16Q143.09-25.44 142.72-25.56L142.72-25.56L142.72-25.56Q142.34-25.69 141.50-25.91L141.50-25.91L141.50-25.91Q140.66-26.13 140.14-26.28L140.14-26.28L140.14-26.28Q139.63-26.44 139.63-27.25L139.63-27.25L139.63-27.25Q139.63-29.94 147-29.94L147-29.94L147-29.94Q151.53-29.94 152.81-29.47L152.81-29.47L152.81-29.47Q155.28-28.59 155.28-27.16L155.28-27.16L155.28-27.16Q155.28-26.19 153.42-25.83L153.42-25.83L153.42-25.83Q151.56-25.47 151.56-24.47L151.56-24.47L151.56-24.47Q151.56-24.34 152.66-21.50L152.66-21.50L152.66-21.50Q156.25-12.19 159.47-6.41ZM181.19-27.66L179-41.34L179-41.34Q179-43.06 179.84-44.19L179.84-44.19L179.84-44.19Q180.69-45.31 182.25-45.31L182.25-45.31L182.25-45.31Q183.81-45.31 184.70-44.19L184.70-44.19L184.70-44.19Q185.59-43.06 185.59-41.59L185.59-41.59L183.41-27.78L183.41-27.78Q183.34-27.19 183.03-26.73L183.03-26.73L183.03-26.73Q182.72-26.28 182.25-26.28L182.25-26.28L182.25-26.28Q181.34-26.28 181.19-27.66L181.19-27.66ZM204.22-2.84L204.22-2.84L204.22-2.84Q211.25-2.84 211.25-7.16L211.25-7.16L211.25-7.16Q211.25-10.41 204.91-12.25L204.91-12.25L204.91-12.25Q203.72-12.59 202.03-13.06L202.03-13.06L202.03-13.06Q198.88-13.91 197.78-14.34L197.78-14.34L197.78-14.34Q195.03-15.41 193.13-17.44L193.13-17.44L193.13-17.44Q191.22-19.47 191.22-22.25L191.22-22.25L191.22-22.25Q191.22-25.84 194.64-28.22L194.64-28.22L194.64-28.22Q198.06-30.59 202.91-30.59L202.91-30.59L202.91-30.59Q207.63-30.59 211.75-28.88L211.75-28.88L211.75-28.88Q213.78-28.03 215.05-26.53L215.05-26.53L215.05-26.53Q216.31-25.03 216.31-23.41L216.31-23.41L216.31-23.41Q216.31-21.78 215.02-20.81L215.02-20.81L215.02-20.81Q213.72-19.84 212.33-19.84L212.33-19.84L212.33-19.84Q210.94-19.84 210.48-20.11L210.48-20.11L210.48-20.11Q210.03-20.38 210.03-21.34L210.03-21.34L210.03-21.34Q210.03-27.38 203.63-27.38L203.63-27.38L203.63-27.38Q200.97-27.38 199-26.20L199-26.20L199-26.20Q197.03-25.03 197.03-23.16L197.03-23.16L197.03-23.16Q197.03-20.22 203.16-18.50L203.16-18.50L203.16-18.50Q204.13-18.25 205.50-17.89L205.50-17.89L205.50-17.89Q206.88-17.53 208.03-17.17L208.03-17.17L208.03-17.17Q209.19-16.81 210.45-16.33L210.45-16.33L210.45-16.33Q211.72-15.84 213.13-15.06L213.13-15.06L213.13-15.06Q214.53-14.28 215.41-13.38L215.41-13.38L215.41-13.38Q217.44-11.31 217.44-8.39L217.44-8.39L217.44-8.39Q217.44-5.47 215.47-3.34L215.47-3.34L215.47-3.34Q211.56 0.81 204.22 0.81L204.22 0.81L204.22 0.81Q199.44 0.81 195.41-0.75L195.41-0.75L195.41-0.75Q193.34-1.56 192.09-3L192.09-3L192.09-3Q190.84-4.44 190.84-6.06L190.84-6.06L190.84-6.06Q190.84-7.69 191.88-8.58L191.88-8.58L191.88-8.58Q192.91-9.47 194.22-9.47L194.22-9.47L194.22-9.47Q195.53-9.47 196.45-8.66L196.45-8.66L196.45-8.66Q197.38-7.84 197.38-6.64L197.38-6.64L197.38-6.64Q197.38-5.44 197.16-4.06L197.16-4.06L197.16-4.06Q200.47-2.84 204.22-2.84ZM238.70-39.63L238.70-39.63L238.70-39.63Q237.41-39.94 236.09-40.20L236.09-40.20L236.09-40.20Q234.78-40.47 234.78-41.11L234.78-41.11L234.78-41.11Q234.78-41.75 235.20-42.23L235.20-42.23L235.20-42.23Q235.63-42.72 236.47-43.02L236.47-43.02L236.47-43.02Q237.31-43.31 238.17-43.50L238.17-43.50L238.17-43.50Q239.03-43.69 240.34-43.75L240.34-43.75L240.34-43.75Q242.19-43.88 244.81-43.88L244.81-43.88L250.25-43.88L250.25-43.88Q260.44-43.88 265.22-42.75L265.22-42.75L265.22-42.75Q270.22-41.63 272.50-39.44L272.50-39.44L272.50-39.44Q275.31-36.75 275.31-32.50L275.31-32.50L275.31-32.50Q275.31-26.22 271.53-23.13L271.53-23.13L271.53-23.13Q268.91-21 266.31-20.30L266.31-20.30L266.31-20.30Q263.72-19.59 261.97-19.30L261.97-19.30L261.97-19.30Q260.22-19 257.88-18.81L257.88-18.81L257.88-18.81Q254.25-18.56 249.03-18.56L249.03-18.56L247.06-18.56L247.06-5.38L247.06-5.38Q247.06-4.78 248.36-4.39L248.36-4.39L248.36-4.39Q249.66-4 250.95-3.64L250.95-3.64L250.95-3.64Q252.25-3.28 252.25-2.81L252.25-2.81L252.25-2.81Q252.25-1.78 251.75-1.17L251.75-1.17L251.75-1.17Q251.25-0.56 249.91-0.31L249.91-0.31L249.91-0.31Q248.25-0.03 243.61-0.03L243.61-0.03L243.61-0.03Q238.97-0.03 237.97-0.16L237.97-0.16L237.97-0.16Q234.81-0.56 234.78-2.50L234.78-2.50L234.78-2.50Q234.78-3.94 237.39-4.03L237.39-4.03L237.39-4.03Q240-4.13 240-5.38L240-5.38L240-38.56L240-38.56Q240-39.31 238.70-39.63ZM268.25-30.59L268.25-30.59L268.25-30.59Q268.25-40.16 253.56-40.16L253.56-40.16L252.22-40.16L252.22-40.16Q249.31-40.16 248.53-39.59L248.53-39.59L248.53-39.59Q247.69-39 247.56-38.66L247.56-38.66L247.56-38.66Q247.44-38.31 247.28-37.88L247.28-37.88L247.28-37.88Q247.06-37.19 247.06-35.72L247.06-35.72L247.06-22.28L247.06-22.28Q248.19-22.19 250.80-22.19L250.80-22.19L250.80-22.19Q253.41-22.19 255.52-22.33L255.52-22.33L255.52-22.33Q257.63-22.47 259.67-22.81L259.67-22.81L259.67-22.81Q261.72-23.16 263.22-23.78L263.22-23.78L263.22-23.78Q264.72-24.41 265.91-25.31L265.91-25.31L265.91-25.31Q268.25-27.13 268.25-30.59ZM293.03 0.78L293.03 0.78L293.03 0.78Q285.97 0.78 281.66-3.67L281.66-3.67L281.66-3.67Q277.34-8.13 277.34-14.97L277.34-14.97L277.34-14.97Q277.34-19.53 279.63-23.09L279.63-23.09L279.63-23.09Q281.91-26.66 285.80-28.55L285.80-28.55L285.80-28.55Q289.69-30.44 294.47-30.44L294.47-30.44L294.47-30.44Q301.34-30.44 305.81-26.16L305.81-26.16L305.81-26.16Q310.28-21.88 310.28-15.09L310.28-15.09L310.28-15.09Q310.28-10.41 307.98-6.77L307.98-6.77L307.98-6.77Q305.69-3.13 301.78-1.17L301.78-1.17L301.78-1.17Q297.88 0.78 293.03 0.78ZM294.31-2.69L294.31-2.69L294.31-2.69Q298.97-2.69 301.58-5.84L301.58-5.84L301.58-5.84Q304.19-9 304.19-14.25L304.19-14.25L304.19-14.25Q304.19-19.50 301.19-23.31L301.19-23.31L301.19-23.31Q298.19-27.13 293.48-27.13L293.48-27.13L293.48-27.13Q288.78-27.13 286.25-23.91L286.25-23.91L286.25-23.91Q283.72-20.69 283.72-15.47L283.72-15.47L283.72-15.47Q283.72-10.25 286.69-6.47L286.69-6.47L286.69-6.47Q289.66-2.69 294.31-2.69ZM322.25 0L322.25 0L319.56 0.03L319.56 0.03Q315.47 0.03 314.50-1.22L314.50-1.22L314.50-1.22Q314.06-1.78 314.06-2.58L314.06-2.58L314.06-2.58Q314.06-3.38 314.69-3.69L314.69-3.69L314.69-3.69Q315.31-4 316.08-4.03L316.08-4.03L316.08-4.03Q316.84-4.06 317.47-4.52L317.47-4.52L317.47-4.52Q318.09-4.97 318.09-5.97L318.09-5.97L318.09-21.41L318.09-21.41Q318.09-24.19 317.42-24.84L317.42-24.84L317.42-24.84Q316.75-25.50 316.30-25.69L316.30-25.69L316.30-25.69Q315.84-25.88 314.88-26.16L314.88-26.16L314.88-26.16Q313.91-26.44 313.30-26.72L313.30-26.72L313.30-26.72Q312.69-27 312.69-27.56L312.69-27.56L312.69-27.56Q312.69-30.06 319.41-30.06L319.41-30.06L319.41-30.06Q322.25-30.06 323.02-29.08L323.02-29.08L323.02-29.08Q323.78-28.09 323.78-24.53L323.78-24.53L323.78-24.53Q324.84-27.22 327.30-28.75L327.30-28.75L327.30-28.75Q329.75-30.28 332.33-30.28L332.33-30.28L332.33-30.28Q334.91-30.28 336.58-29.17L336.58-29.17L336.58-29.17Q338.25-28.06 338.25-26.36L338.25-26.36L338.25-26.36Q338.25-24.66 337.16-23.64L337.16-23.64L337.16-23.64Q336.06-22.63 334.47-22.63L334.47-22.63L334.47-22.63Q332.88-22.63 331.73-23.47L331.73-23.47L331.73-23.47Q330.59-24.31 330.25-25.66L330.25-25.66L330.25-25.66Q329.44-25.78 328.91-25.78L328.91-25.78L328.91-25.78Q324.03-25.78 324.03-14.56L324.03-14.56L324.03-5.97L324.03-5.97Q324.03-4.16 326.05-4.05L326.05-4.05L326.05-4.05Q328.06-3.94 328.06-2.44L328.06-2.44L328.06-2.44Q328.06-0.72 326.19-0.31L326.19-0.31L326.19-0.31Q324.75 0 322.25 0ZM343.50-8.41L343.50-25.88L341.59-25.84L341.59-25.84Q340.44-25.84 339.91-26.06L339.91-26.06L339.91-26.06Q339.38-26.28 339.38-26.98L339.38-26.98L339.38-26.98Q339.38-27.69 339.98-28.27L339.98-28.27L339.98-28.27Q340.59-28.84 341.38-29.16L341.38-29.16L341.38-29.16Q343.53-30.03 343.95-30.64L343.95-30.64L343.95-30.64Q344.38-31.25 345.22-33.31L345.22-33.31L345.22-33.31Q347.31-38.47 348.72-38.47L348.72-38.47L348.72-38.47Q349.44-38.47 349.55-36.92L349.55-36.92L349.55-36.92Q349.66-35.38 349.67-34.56L349.67-34.56L349.67-34.56Q349.69-33.75 349.66-32.14L349.66-32.14L349.66-32.14Q349.63-30.53 349.63-29.91L349.63-29.91L357.06-29.88L357.06-29.88Q358.16-29.88 358.91-29.33L358.91-29.33L358.91-29.33Q359.66-28.78 359.66-27.88L359.66-27.88L359.66-27.88Q359.66-26.97 358.92-26.47L358.92-26.47L358.92-26.47Q358.19-25.97 357.09-25.97L357.09-25.97L349.63-25.97L349.59-10L349.59-10Q349.59-3.22 353-3.22L353-3.22L353-3.22Q353.94-3.22 355.78-3.80L355.78-3.80L355.78-3.80Q357.63-4.38 358.19-4.38L358.19-4.38L358.19-4.38Q359.47-4.38 359.47-2.91L359.47-2.91L359.47-2.91Q359.47-1.75 356.45-0.59L356.45-0.59L356.45-0.59Q353.44 0.56 350.27 0.56L350.27 0.56L350.27 0.56Q347.09 0.56 345.30-1.91L345.30-1.91L345.30-1.91Q343.50-4.38 343.50-8.41L343.50-8.41ZM366.09-0.75L366.09-0.75L366.09-0.75Q365.56-1.03 365.33-1.50L365.33-1.50L365.33-1.50Q365.09-1.97 365.09-2.67L365.09-2.67L365.09-2.67Q365.09-3.38 365.72-3.69L365.72-3.69L365.72-3.69Q366.34-4 367.11-4.03L367.11-4.03L367.11-4.03Q367.88-4.06 368.50-4.52L368.50-4.52L368.50-4.52Q369.13-4.97 369.13-5.97L369.13-5.97L369.13-26.03L366.94-26.03L366.94-26.03Q366.13-26.03 365.58-26.61L365.58-26.61L365.58-26.61Q365.03-27.19 365.03-28.28L365.03-28.28L365.03-28.28Q365.03-29.38 365.56-29.72L365.56-29.72L365.56-29.72Q366.09-30.06 367.53-30.06L367.53-30.06L369.13-30.06L369.13-34.66L369.13-34.66Q369.13-39.91 372.30-42.75L372.30-42.75L372.30-42.75Q375.47-45.59 380.97-45.59L380.97-45.59L380.97-45.59Q385.47-45.59 387.47-43.81L387.47-43.81L387.47-43.81Q388.63-42.81 388.63-41.19L388.63-41.19L388.63-41.19Q388.63-37.38 384.78-37.38L384.78-37.38L384.78-37.38Q381.44-37.38 381.44-41.19L381.44-41.19L381.44-41.63L381.44-41.63Q380.25-42.13 379.03-42.13L379.03-42.13L379.03-42.13Q373.69-42.13 373.69-36.56L373.69-36.56L373.69-36.56Q373.69-32.88 375.06-30.06L375.06-30.06L379.59-30.06L379.59-30.06Q381.84-30.06 381.84-28.75L381.84-28.75L381.84-28.75Q381.84-27.69 381.17-26.91L381.17-26.91L381.17-26.91Q380.50-26.13 379.69-26.13L379.69-26.13L375.06-26.13L375.06-5.97L375.06-5.97Q375.06-4.16 377.08-4.05L377.08-4.05L377.08-4.05Q379.09-3.94 379.09-2.44L379.09-2.44L379.09-2.44Q379.09-0.72 376.78-0.31L376.78-0.31L376.78-0.31Q375.09 0 373.45 0L373.45 0L373.45 0Q371.81 0 371.09 0L371.09 0L371.09 0Q370.38 0 369.86-0.02L369.86-0.02L369.86-0.02Q369.34-0.03 368.45-0.09L368.45-0.09L368.45-0.09Q367.56-0.16 367.09-0.31L367.09-0.31L367.09-0.31Q366.63-0.47 366.09-0.75ZM403.06 0.78L403.06 0.78L403.06 0.78Q396 0.78 391.69-3.67L391.69-3.67L391.69-3.67Q387.38-8.13 387.38-14.97L387.38-14.97L387.38-14.97Q387.38-19.53 389.66-23.09L389.66-23.09L389.66-23.09Q391.94-26.66 395.83-28.55L395.83-28.55L395.83-28.55Q399.72-30.44 404.50-30.44L404.50-30.44L404.50-30.44Q411.38-30.44 415.84-26.16L415.84-26.16L415.84-26.16Q420.31-21.88 420.31-15.09L420.31-15.09L420.31-15.09Q420.31-10.41 418.02-6.77L418.02-6.77L418.02-6.77Q415.72-3.13 411.81-1.17L411.81-1.17L411.81-1.17Q407.91 0.78 403.06 0.78ZM404.34-2.69L404.34-2.69L404.34-2.69Q409-2.69 411.61-5.84L411.61-5.84L411.61-5.84Q414.22-9 414.22-14.25L414.22-14.25L414.22-14.25Q414.22-19.50 411.22-23.31L411.22-23.31L411.22-23.31Q408.22-27.13 403.52-27.13L403.52-27.13L403.52-27.13Q398.81-27.13 396.28-23.91L396.28-23.91L396.28-23.91Q393.75-20.69 393.75-15.47L393.75-15.47L393.75-15.47Q393.75-10.25 396.72-6.47L396.72-6.47L396.72-6.47Q399.69-2.69 404.34-2.69ZM432.22 0L432.22 0L429.53 0.03L429.53 0.03Q425.44 0.03 424.47-1.22L424.47-1.22L424.47-1.22Q424.03-1.78 424.03-2.58L424.03-2.58L424.03-2.58Q424.03-3.38 424.66-3.69L424.66-3.69L424.66-3.69Q425.28-4 426.03-4.03L426.03-4.03L426.03-4.03Q426.78-4.06 427.41-4.52L427.41-4.52L427.41-4.52Q428.03-4.97 428.03-5.97L428.03-5.97L428.03-38.97L428.03-38.97Q428.03-41.81 425.78-42.03L425.78-42.03L425.78-42.03Q425.56-42.06 425.22-42.09L425.22-42.09L425.22-42.09Q424.88-42.13 424.72-42.14L424.72-42.14L424.72-42.14Q424.56-42.16 424.33-42.20L424.33-42.20L424.33-42.20Q424.09-42.25 423.98-42.31L423.98-42.31L423.98-42.31Q423.88-42.38 423.78-42.47L423.78-42.47L423.78-42.47Q423.56-42.66 423.56-43.38L423.56-43.38L423.56-43.38Q423.56-44.09 424.53-44.88L424.53-44.88L424.53-44.88Q426.28-46.31 429.25-46.31L429.25-46.31L429.25-46.31Q432.41-46.31 432.94-45.94L432.94-45.94L432.94-45.94Q434-45.19 434-43.97L434-43.97L434-5.97L434-5.97Q434-4.16 436.02-4.05L436.02-4.05L436.02-4.05Q438.03-3.94 438.03-2.44L438.03-2.44L438.03-2.44Q438.03-0.72 436.16-0.31L436.16-0.31L436.16-0.31Q434.72 0 432.22 0ZM445.94-39.22L445.94-39.22L445.94-39.22Q445.94-40.59 447.27-41.80L447.27-41.80L447.27-41.80Q448.59-43 450.17-43L450.17-43L450.17-43Q451.75-43 453.23-42.03L453.23-42.03L453.23-42.03Q454.72-41.06 454.72-39.47L454.72-39.47L454.72-39.47Q454.72-37.88 453.47-36.80L453.47-36.80L453.47-36.80Q452.22-35.72 450.41-35.72L450.41-35.72L450.41-35.72Q448.59-35.72 447.27-36.72L447.27-36.72L447.27-36.72Q445.94-37.72 445.94-39.22ZM452.47 0L452.47 0L449.78 0.03L449.78 0.03Q445.69 0.03 444.72-1.22L444.72-1.22L444.72-1.22Q444.28-1.78 444.28-2.58L444.28-2.58L444.28-2.58Q444.28-3.38 444.91-3.69L444.91-3.69L444.91-3.69Q445.53-4 446.30-4.03L446.30-4.03L446.30-4.03Q447.06-4.06 447.69-4.52L447.69-4.52L447.69-4.52Q448.31-4.97 448.31-5.97L448.31-5.97L448.31-22.78L448.31-22.78Q448.31-25.63 446.09-25.84L446.09-25.84L446.09-25.84Q445.88-25.88 445.53-25.91L445.53-25.91L445.53-25.91Q445.19-25.94 445.03-25.95L445.03-25.95L445.03-25.95Q444.88-25.97 444.64-26.02L444.64-26.02L444.64-26.02Q444.41-26.06 444.30-26.13L444.30-26.13L444.30-26.13Q444.19-26.19 444.06-26.28L444.06-26.28L444.06-26.28Q443.84-26.44 443.84-27.17L443.84-27.17L443.84-27.17Q443.84-27.91 444.78-28.69L444.78-28.69L444.78-28.69Q446.56-30.13 449.53-30.13L449.53-30.13L449.53-30.13Q452.28-30.13 452.77-29.91L452.77-29.91L452.77-29.91Q453.25-29.69 453.59-29.44L453.59-29.44L453.59-29.44Q454.25-29 454.25-27.78L454.25-27.78L454.25-5.97L454.25-5.97Q454.25-4.16 456.27-4.05L456.27-4.05L456.27-4.05Q458.28-3.94 458.28-2.44L458.28-2.44L458.28-2.44Q458.28-0.72 456.41-0.31L456.41-0.31L456.41-0.31Q454.97 0 452.47 0ZM477.91 0.78L477.91 0.78L477.91 0.78Q470.84 0.78 466.53-3.67L466.53-3.67L466.53-3.67Q462.22-8.13 462.22-14.97L462.22-14.97L462.22-14.97Q462.22-19.53 464.50-23.09L464.50-23.09L464.50-23.09Q466.78-26.66 470.67-28.55L470.67-28.55L470.67-28.55Q474.56-30.44 479.34-30.44L479.34-30.44L479.34-30.44Q486.22-30.44 490.69-26.16L490.69-26.16L490.69-26.16Q495.16-21.88 495.16-15.09L495.16-15.09L495.16-15.09Q495.16-10.41 492.86-6.77L492.86-6.77L492.86-6.77Q490.56-3.13 486.66-1.17L486.66-1.17L486.66-1.17Q482.75 0.78 477.91 0.78ZM479.19-2.69L479.19-2.69L479.19-2.69Q483.84-2.69 486.45-5.84L486.45-5.84L486.45-5.84Q489.06-9 489.06-14.25L489.06-14.25L489.06-14.25Q489.06-19.50 486.06-23.31L486.06-23.31L486.06-23.31Q483.06-27.13 478.36-27.13L478.36-27.13L478.36-27.13Q473.66-27.13 471.13-23.91L471.13-23.91L471.13-23.91Q468.59-20.69 468.59-15.47L468.59-15.47L468.59-15.47Q468.59-10.25 471.56-6.47L471.56-6.47L471.56-6.47Q474.53-2.69 479.19-2.69Z" fill="#ccc"></path></g></g><style>text {
  font-size: 64px;
  font-family: Arial Black;
  dominant-baseline: central;
  text-anchor: middle;
}</style></svg>